<svg width="967" height="81" viewBox="0 0 967 81" fill="none" xmlns="http://www.w3.org/2000/svg">
<path d="M65.4302 31.446C65.2882 29.8835 64.6561 28.669 63.5339 27.8026C62.426 26.9219 60.8422 26.4815 58.7825 26.4815C57.4189 26.4815 56.2825 26.6591 55.3734 27.0142C54.4643 27.3693 53.7825 27.8594 53.3279 28.4844C52.8734 29.0952 52.639 29.7983 52.6248 30.5938C52.5964 31.2472 52.7243 31.8224 53.0083 32.3196C53.3066 32.8168 53.7328 33.2571 54.2868 33.6406C54.8549 34.0099 55.5368 34.3366 56.3322 34.6207C57.1277 34.9048 58.0225 35.1534 59.0169 35.3665L62.7669 36.2188C64.926 36.6875 66.8294 37.3125 68.4771 38.0938C70.139 38.875 71.5311 39.8054 72.6532 40.8849C73.7896 41.9645 74.649 43.2074 75.2314 44.6136C75.8137 46.0199 76.112 47.5966 76.1262 49.3438C76.112 52.0994 75.416 54.4645 74.0382 56.4389C72.6603 58.4134 70.6788 59.9261 68.0936 60.9773C65.5226 62.0284 62.4189 62.554 58.7825 62.554C55.1319 62.554 51.9501 62.0071 49.237 60.9134C46.524 59.8196 44.4146 58.1577 42.9089 55.9276C41.4032 53.6974 40.6291 50.8778 40.5865 47.4688H50.6859C50.7711 48.875 51.1476 50.0469 51.8152 50.9844C52.4828 51.9219 53.399 52.6321 54.5637 53.1151C55.7427 53.598 57.1064 53.8395 58.6547 53.8395C60.0751 53.8395 61.2825 53.6477 62.2768 53.2642C63.2853 52.8807 64.0595 52.348 64.5993 51.6662C65.139 50.9844 65.416 50.2031 65.4302 49.3224C65.416 48.4986 65.1603 47.7955 64.6632 47.2131C64.166 46.6165 63.399 46.1051 62.362 45.679C61.3393 45.2386 60.0325 44.8338 58.4416 44.4645L53.8819 43.3991C50.1035 42.5327 47.1277 41.1335 44.9544 39.2017C42.7811 37.2557 41.7015 34.6278 41.7157 31.3182C41.7015 28.6193 42.426 26.2543 43.889 24.223C45.3521 22.1918 47.3762 20.608 49.9615 19.4716C52.5467 18.3352 55.4941 17.767 58.8038 17.767C62.1845 17.767 65.1177 18.3423 67.6035 19.4929C70.1035 20.6293 72.0424 22.2273 73.4203 24.2869C74.7981 26.3466 75.5012 28.733 75.5297 31.446H65.4302ZM91.872 43.3352V62H81.4529V18.3636H91.5311V35.2812H91.8933C92.6319 33.2642 93.8393 31.6875 95.5154 30.5511C97.2058 29.4148 99.2726 28.8466 101.716 28.8466C104.017 28.8466 106.02 29.358 107.724 30.3807C109.429 31.3892 110.75 32.8168 111.687 34.6634C112.639 36.5099 113.108 38.669 113.094 41.1406V62H102.675V43.1861C102.689 41.3679 102.234 39.9474 101.311 38.9247C100.388 37.902 99.0879 37.3906 97.4118 37.3906C96.318 37.3906 95.3521 37.6321 94.514 38.1151C93.6902 38.5838 93.0439 39.2585 92.5751 40.1392C92.1206 41.0199 91.8862 42.0852 91.872 43.3352ZM134.874 62.6179C131.437 62.6179 128.482 61.9148 126.011 60.5085C123.553 59.0881 121.657 57.1136 120.322 54.5852C119.001 52.0426 118.34 49.0952 118.34 45.7429C118.34 42.3764 119.001 39.429 120.322 36.9006C121.657 34.358 123.553 32.3835 126.011 30.9773C128.482 29.5568 131.437 28.8466 134.874 28.8466C138.312 28.8466 141.259 29.5568 143.717 30.9773C146.188 32.3835 148.085 34.358 149.406 36.9006C150.741 39.429 151.409 42.3764 151.409 45.7429C151.409 49.0952 150.741 52.0426 149.406 54.5852C148.085 57.1136 146.188 59.0881 143.717 60.5085C141.259 61.9148 138.312 62.6179 134.874 62.6179ZM134.938 54.7557C136.188 54.7557 137.247 54.3722 138.113 53.6051C138.98 52.8381 139.64 51.7727 140.095 50.4091C140.563 49.0455 140.798 47.4687 140.798 45.679C140.798 43.8608 140.563 42.2699 140.095 40.9062C139.64 39.5426 138.98 38.4773 138.113 37.7102C137.247 36.9432 136.188 36.5597 134.938 36.5597C133.646 36.5597 132.552 36.9432 131.657 37.7102C130.776 38.4773 130.102 39.5426 129.633 40.9062C129.178 42.2699 128.951 43.8608 128.951 45.679C128.951 47.4687 129.178 49.0455 129.633 50.4091C130.102 51.7727 130.776 52.8381 131.657 53.6051C132.552 54.3722 133.646 54.7557 134.938 54.7557ZM156.746 62V29.2727H166.867V35.2386H167.208C167.804 33.0795 168.777 31.4744 170.127 30.4233C171.476 29.358 173.046 28.8253 174.835 28.8253C175.318 28.8253 175.816 28.8608 176.327 28.9318C176.838 28.9886 177.314 29.081 177.754 29.2088V38.2642C177.257 38.0937 176.604 37.9588 175.794 37.8594C174.999 37.7599 174.289 37.7102 173.664 37.7102C172.428 37.7102 171.313 37.9872 170.318 38.5412C169.338 39.081 168.564 39.8409 167.996 40.821C167.442 41.7869 167.165 42.9233 167.165 44.2301V62H156.746ZM201.996 29.2727V36.9432H181.35V29.2727H201.996ZM185.675 21.4318H196.094V51.7088C196.094 52.348 196.194 52.8665 196.393 53.2642C196.606 53.6477 196.911 53.9247 197.309 54.0952C197.706 54.2514 198.182 54.3295 198.736 54.3295C199.134 54.3295 199.553 54.294 199.993 54.223C200.448 54.1378 200.789 54.0668 201.016 54.0099L202.593 61.5312C202.096 61.6733 201.393 61.8509 200.483 62.0639C199.589 62.277 198.516 62.4119 197.266 62.4688C194.823 62.5824 192.728 62.2983 190.981 61.6165C189.248 60.9205 187.92 59.8409 186.996 58.3778C186.087 56.9148 185.647 55.0753 185.675 52.8594V21.4318ZM222.259 62.6179C218.836 62.6179 215.881 61.9432 213.395 60.5938C210.924 59.2301 209.02 57.2912 207.685 54.777C206.364 52.2486 205.704 49.2443 205.704 45.7642C205.704 42.3835 206.371 39.429 207.706 36.9006C209.042 34.358 210.924 32.3835 213.353 30.9773C215.782 29.5568 218.644 28.8466 221.939 28.8466C224.269 28.8466 226.4 29.2088 228.331 29.9332C230.263 30.6577 231.932 31.7301 233.339 33.1506C234.745 34.571 235.839 36.3253 236.62 38.4134C237.401 40.4872 237.792 42.8665 237.792 45.5511V48.1506H209.347V42.0994H228.097C228.083 40.9915 227.82 40.0043 227.309 39.1378C226.797 38.2713 226.094 37.5966 225.199 37.1136C224.319 36.6165 223.303 36.3679 222.153 36.3679C220.988 36.3679 219.944 36.6307 219.02 37.1562C218.097 37.6676 217.366 38.3707 216.826 39.2656C216.286 40.1463 216.002 41.1477 215.974 42.2699V48.4276C215.974 49.7628 216.236 50.9347 216.762 51.9432C217.287 52.9375 218.033 53.7116 218.999 54.2656C219.965 54.8196 221.116 55.0966 222.451 55.0966C223.374 55.0966 224.212 54.9687 224.965 54.7131C225.718 54.4574 226.364 54.081 226.904 53.5838C227.444 53.0866 227.849 52.4759 228.118 51.7514L237.685 52.0284C237.287 54.1733 236.414 56.0412 235.064 57.6321C233.729 59.2088 231.975 60.4375 229.802 61.3182C227.628 62.1847 225.114 62.6179 222.259 62.6179ZM253.532 43.3352V62H243.113V29.2727H253.021V35.2812H253.383C254.107 33.2784 255.343 31.7088 257.09 30.5724C258.838 29.4219 260.919 28.8466 263.333 28.8466C265.634 28.8466 267.63 29.3651 269.32 30.402C271.025 31.4247 272.346 32.8594 273.284 34.706C274.235 36.5384 274.704 38.6832 274.69 41.1406V62H264.271V43.1861C264.285 41.3679 263.823 39.9474 262.886 38.9247C261.963 37.902 260.677 37.3906 259.029 37.3906C257.936 37.3906 256.97 37.6321 256.132 38.1151C255.308 38.5838 254.669 39.2585 254.214 40.1392C253.774 41.0199 253.546 42.0852 253.532 43.3352ZM291.858 18.3636H303.64L312.866 36.6236H313.25L322.476 18.3636H334.258L318.3 47.4261V62H307.817V47.4261L291.858 18.3636ZM346.398 62.6179C342.96 62.6179 340.006 61.9148 337.534 60.5085C335.077 59.0881 333.181 57.1136 331.845 54.5852C330.524 52.0426 329.864 49.0952 329.864 45.7429C329.864 42.3764 330.524 39.429 331.845 36.9006C333.181 34.358 335.077 32.3835 337.534 30.9773C340.006 29.5568 342.96 28.8466 346.398 28.8466C349.835 28.8466 352.783 29.5568 355.24 30.9773C357.712 32.3835 359.608 34.358 360.929 36.9006C362.264 39.429 362.932 42.3764 362.932 45.7429C362.932 49.0952 362.264 52.0426 360.929 54.5852C359.608 57.1136 357.712 59.0881 355.24 60.5085C352.783 61.9148 349.835 62.6179 346.398 62.6179ZM346.462 54.7557C347.712 54.7557 348.77 54.3722 349.637 53.6051C350.503 52.8381 351.164 51.7727 351.618 50.4091C352.087 49.0455 352.321 47.4687 352.321 45.679C352.321 43.8608 352.087 42.2699 351.618 40.9062C351.164 39.5426 350.503 38.4773 349.637 37.7102C348.77 36.9432 347.712 36.5597 346.462 36.5597C345.169 36.5597 344.075 36.9432 343.181 37.7102C342.3 38.4773 341.625 39.5426 341.156 40.9062C340.702 42.2699 340.475 43.8608 340.475 45.679C340.475 47.4687 340.702 49.0455 341.156 50.4091C341.625 51.7727 342.3 52.8381 343.181 53.6051C344.075 54.3722 345.169 54.7557 346.462 54.7557ZM389.384 47.8736V29.2727H399.782V62H389.853V55.9062H389.512C388.788 57.9091 387.552 59.5 385.805 60.679C384.072 61.8437 381.977 62.4261 379.519 62.4261C377.289 62.4261 375.329 61.9148 373.639 60.892C371.948 59.8693 370.634 58.4418 369.697 56.6094C368.759 54.7628 368.284 52.6037 368.269 50.1321V29.2727H378.688V48.0866C378.703 49.8622 379.171 51.2614 380.095 52.2841C381.018 53.3068 382.275 53.8182 383.866 53.8182C384.903 53.8182 385.833 53.5909 386.657 53.1364C387.495 52.6676 388.156 51.9929 388.639 51.1122C389.136 50.2173 389.384 49.1378 389.384 47.8736ZM406.414 62V29.2727H416.535V35.2386H416.876C417.472 33.0795 418.445 31.4744 419.795 30.4233C421.144 29.358 422.714 28.8253 424.503 28.8253C424.986 28.8253 425.483 28.8608 425.995 28.9318C426.506 28.9886 426.982 29.081 427.422 29.2088V38.2642C426.925 38.0937 426.272 37.9588 425.462 37.8594C424.667 37.7599 423.956 37.7102 423.331 37.7102C422.096 37.7102 420.981 37.9872 419.986 38.5412C419.006 39.081 418.232 39.8409 417.664 40.821C417.11 41.7869 416.833 42.9233 416.833 44.2301V62H406.414ZM444.558 62V18.3636H455.105V53.4347H473.259V62H444.558ZM493.996 62.6179C490.558 62.6179 487.604 61.9148 485.132 60.5085C482.675 59.0881 480.778 57.1136 479.443 54.5852C478.122 52.0426 477.461 49.0952 477.461 45.7429C477.461 42.3764 478.122 39.429 479.443 36.9006C480.778 34.358 482.675 32.3835 485.132 30.9773C487.604 29.5568 490.558 28.8466 493.996 28.8466C497.433 28.8466 500.381 29.5568 502.838 30.9773C505.309 32.3835 507.206 34.358 508.527 36.9006C509.862 39.429 510.53 42.3764 510.53 45.7429C510.53 49.0952 509.862 52.0426 508.527 54.5852C507.206 57.1136 505.309 59.0881 502.838 60.5085C500.381 61.9148 497.433 62.6179 493.996 62.6179ZM494.059 54.7557C495.309 54.7557 496.368 54.3722 497.234 53.6051C498.101 52.8381 498.761 51.7727 499.216 50.4091C499.684 49.0455 499.919 47.4687 499.919 45.679C499.919 43.8608 499.684 42.2699 499.216 40.9062C498.761 39.5426 498.101 38.4773 497.234 37.7102C496.368 36.9432 495.309 36.5597 494.059 36.5597C492.767 36.5597 491.673 36.9432 490.778 37.7102C489.898 38.4773 489.223 39.5426 488.754 40.9062C488.3 42.2699 488.072 43.8608 488.072 45.679C488.072 47.4687 488.3 49.0455 488.754 50.4091C489.223 51.7727 489.898 52.8381 490.778 53.6051C491.673 54.3722 492.767 54.7557 494.059 54.7557ZM531.144 62.6179C527.706 62.6179 524.752 61.9148 522.28 60.5085C519.823 59.0881 517.927 57.1136 516.591 54.5852C515.27 52.0426 514.61 49.0952 514.61 45.7429C514.61 42.3764 515.27 39.429 516.591 36.9006C517.927 34.358 519.823 32.3835 522.28 30.9773C524.752 29.5568 527.706 28.8466 531.144 28.8466C534.581 28.8466 537.529 29.5568 539.986 30.9773C542.458 32.3835 544.354 34.358 545.675 36.9006C547.01 39.429 547.678 42.3764 547.678 45.7429C547.678 49.0952 547.01 52.0426 545.675 54.5852C544.354 57.1136 542.458 59.0881 539.986 60.5085C537.529 61.9148 534.581 62.6179 531.144 62.6179ZM531.208 54.7557C532.458 54.7557 533.516 54.3722 534.383 53.6051C535.249 52.8381 535.91 51.7727 536.364 50.4091C536.833 49.0455 537.067 47.4687 537.067 45.679C537.067 43.8608 536.833 42.2699 536.364 40.9062C535.91 39.5426 535.249 38.4773 534.383 37.7102C533.516 36.9432 532.458 36.5597 531.208 36.5597C529.915 36.5597 528.822 36.9432 527.927 37.7102C527.046 38.4773 526.371 39.5426 525.903 40.9062C525.448 42.2699 525.221 43.8608 525.221 45.679C525.221 47.4687 525.448 49.0455 525.903 50.4091C526.371 51.7727 527.046 52.8381 527.927 53.6051C528.822 54.3722 529.915 54.7557 531.208 54.7557ZM568.292 62.6179C564.855 62.6179 561.9 61.9148 559.429 60.5085C556.971 59.0881 555.075 57.1136 553.74 54.5852C552.419 52.0426 551.758 49.0952 551.758 45.7429C551.758 42.3764 552.419 39.429 553.74 36.9006C555.075 34.358 556.971 32.3835 559.429 30.9773C561.9 29.5568 564.855 28.8466 568.292 28.8466C571.73 28.8466 574.677 29.5568 577.135 30.9773C579.606 32.3835 581.503 34.358 582.824 36.9006C584.159 39.429 584.827 42.3764 584.827 45.7429C584.827 49.0952 584.159 52.0426 582.824 54.5852C581.503 57.1136 579.606 59.0881 577.135 60.5085C574.677 61.9148 571.73 62.6179 568.292 62.6179ZM568.356 54.7557C569.606 54.7557 570.665 54.3722 571.531 53.6051C572.398 52.8381 573.058 51.7727 573.513 50.4091C573.981 49.0455 574.216 47.4687 574.216 45.679C574.216 43.8608 573.981 42.2699 573.513 40.9062C573.058 39.5426 572.398 38.4773 571.531 37.7102C570.665 36.9432 569.606 36.5597 568.356 36.5597C567.064 36.5597 565.97 36.9432 565.075 37.7102C564.194 38.4773 563.52 39.5426 563.051 40.9062C562.596 42.2699 562.369 43.8608 562.369 45.679C562.369 47.4687 562.596 49.0455 563.051 50.4091C563.52 51.7727 564.194 52.8381 565.075 53.6051C565.97 54.3722 567.064 54.7557 568.356 54.7557ZM605.441 62.6179C602.003 62.6179 599.049 61.9148 596.577 60.5085C594.12 59.0881 592.224 57.1136 590.888 54.5852C589.567 52.0426 588.907 49.0952 588.907 45.7429C588.907 42.3764 589.567 39.429 590.888 36.9006C592.224 34.358 594.12 32.3835 596.577 30.9773C599.049 29.5568 602.003 28.8466 605.441 28.8466C608.878 28.8466 611.826 29.5568 614.283 30.9773C616.755 32.3835 618.651 34.358 619.972 36.9006C621.307 39.429 621.975 42.3764 621.975 45.7429C621.975 49.0952 621.307 52.0426 619.972 54.5852C618.651 57.1136 616.755 59.0881 614.283 60.5085C611.826 61.9148 608.878 62.6179 605.441 62.6179ZM605.505 54.7557C606.755 54.7557 607.813 54.3722 608.68 53.6051C609.546 52.8381 610.206 51.7727 610.661 50.4091C611.13 49.0455 611.364 47.4687 611.364 45.679C611.364 43.8608 611.13 42.2699 610.661 40.9062C610.206 39.5426 609.546 38.4773 608.68 37.7102C607.813 36.9432 606.755 36.5597 605.505 36.5597C604.212 36.5597 603.118 36.9432 602.224 37.7102C601.343 38.4773 600.668 39.5426 600.199 40.9062C599.745 42.2699 599.518 43.8608 599.518 45.679C599.518 47.4687 599.745 49.0455 600.199 50.4091C600.668 51.7727 601.343 52.8381 602.224 53.6051C603.118 54.3722 604.212 54.7557 605.505 54.7557ZM637.731 43.3352V62H627.312V29.2727H637.22V35.2812H637.582C638.307 33.2784 639.542 31.7088 641.29 30.5724C643.037 29.4219 645.118 28.8466 647.532 28.8466C649.834 28.8466 651.829 29.3651 653.52 30.402C655.224 31.4247 656.545 32.8594 657.483 34.706C658.434 36.5384 658.903 38.6832 658.889 41.1406V62H648.47V43.1861C648.484 41.3679 648.023 39.9474 647.085 38.9247C646.162 37.902 644.876 37.3906 643.229 37.3906C642.135 37.3906 641.169 37.6321 640.331 38.1151C639.507 38.5838 638.868 39.2585 638.413 40.1392C637.973 41.0199 637.746 42.0852 637.731 43.3352ZM680.595 74.9545C677.485 74.9545 674.821 74.5213 672.605 73.6548C670.389 72.7884 668.649 71.6023 667.385 70.0966C666.121 68.5909 665.361 66.8864 665.105 64.983L674.97 64.429C675.155 65.0966 675.496 65.679 675.993 66.1761C676.504 66.6733 677.165 67.0568 677.975 67.3267C678.798 67.5966 679.764 67.7315 680.872 67.7315C682.619 67.7315 684.061 67.3054 685.198 66.4531C686.348 65.6151 686.923 64.1449 686.923 62.0426V56.2898H686.561C686.149 57.2983 685.524 58.2003 684.686 58.9957C683.848 59.7912 682.804 60.4162 681.554 60.8707C680.318 61.3253 678.898 61.5526 677.293 61.5526C674.906 61.5526 672.719 60.9986 670.73 59.8906C668.756 58.7685 667.172 57.0355 665.979 54.6918C664.8 52.3338 664.21 49.3011 664.21 45.5938C664.21 41.7727 664.821 38.6264 666.043 36.1548C667.264 33.669 668.862 31.8295 670.837 30.6364C672.825 29.4432 674.963 28.8466 677.25 28.8466C678.969 28.8466 680.439 29.1449 681.661 29.7415C682.896 30.3239 683.912 31.0767 684.708 32C685.503 32.9233 686.107 33.8821 686.519 34.8764H686.817V29.2727H697.193V62.1278C697.193 64.8977 696.497 67.2344 695.105 69.1378C693.713 71.0412 691.767 72.483 689.267 73.4631C686.767 74.4574 683.877 74.9545 680.595 74.9545ZM680.915 53.9673C682.179 53.9673 683.259 53.6335 684.154 52.9659C685.048 52.2983 685.737 51.3395 686.22 50.0895C686.703 48.8395 686.945 47.3409 686.945 45.5938C686.945 43.8182 686.703 42.2912 686.22 41.0128C685.752 39.7202 685.063 38.7259 684.154 38.0298C683.259 37.3338 682.179 36.9858 680.915 36.9858C679.622 36.9858 678.529 37.3409 677.634 38.0511C676.739 38.7614 676.057 39.7628 675.588 41.0554C675.134 42.3338 674.906 43.8466 674.906 45.5938C674.906 47.3409 675.141 48.8395 675.61 50.0895C676.078 51.3395 676.753 52.2983 677.634 52.9659C678.529 53.6335 679.622 53.9673 680.915 53.9673ZM716.726 62V18.3636H727.273V53.4347H745.427V62H716.726ZM750.887 62V29.2727H761.306V62H750.887ZM756.107 25.4588C754.644 25.4588 753.387 24.9759 752.335 24.0099C751.284 23.0298 750.759 21.8509 750.759 20.473C750.759 19.1094 751.284 17.9446 752.335 16.9787C753.387 15.9986 754.644 15.5085 756.107 15.5085C757.584 15.5085 758.841 15.9986 759.878 16.9787C760.929 17.9446 761.455 19.1094 761.455 20.473C761.455 21.8509 760.929 23.0298 759.878 24.0099C758.841 24.9759 757.584 25.4588 756.107 25.4588ZM778.356 43.3352V62H767.937V29.2727H777.845V35.2812H778.207C778.932 33.2784 780.167 31.7088 781.915 30.5724C783.662 29.4219 785.743 28.8466 788.157 28.8466C790.459 28.8466 792.454 29.3651 794.145 30.402C795.849 31.4247 797.17 32.8594 798.108 34.706C799.059 36.5384 799.528 38.6832 799.514 41.1406V62H789.095V43.1861C789.109 41.3679 788.648 39.9474 787.71 38.9247C786.787 37.902 785.501 37.3906 783.854 37.3906C782.76 37.3906 781.794 37.6321 780.956 38.1151C780.132 38.5838 779.493 39.2585 779.038 40.1392C778.598 41.0199 778.371 42.0852 778.356 43.3352ZM815.361 53.4134L815.404 40.9915H816.852L826.057 29.2727H837.861L824.182 46.0625H821.433L815.361 53.4134ZM805.965 62V18.3636H816.384V62H805.965ZM826.291 62L817.726 48.4062L824.587 41.0128L838.33 62H826.291ZM870.162 39.2656L860.595 39.5213C860.496 38.8395 860.226 38.2358 859.786 37.7102C859.345 37.1705 858.77 36.7514 858.06 36.4531C857.364 36.1406 856.554 35.9844 855.631 35.9844C854.423 35.9844 853.394 36.2259 852.541 36.7088C851.703 37.1918 851.291 37.8452 851.306 38.669C851.291 39.3082 851.547 39.8622 852.073 40.331C852.612 40.7997 853.571 41.1761 854.949 41.4602L861.256 42.6534C864.523 43.2784 866.952 44.3153 868.543 45.7642C870.148 47.2131 870.958 49.1307 870.972 51.517C870.958 53.7614 870.29 55.7145 868.969 57.3764C867.662 59.0384 865.872 60.331 863.6 61.2543C861.327 62.1634 858.727 62.6179 855.801 62.6179C851.128 62.6179 847.442 61.6591 844.743 59.7415C842.058 57.8097 840.524 55.2244 840.141 51.9858L850.432 51.7301C850.659 52.9233 851.249 53.8324 852.2 54.4574C853.152 55.0824 854.367 55.3949 855.844 55.3949C857.179 55.3949 858.266 55.1463 859.104 54.6491C859.942 54.152 860.368 53.4915 860.382 52.6676C860.368 51.929 860.041 51.3395 859.402 50.8991C858.763 50.4446 857.762 50.0895 856.398 49.8338L850.688 48.7472C847.406 48.1506 844.963 47.0497 843.358 45.4446C841.753 43.8253 840.958 41.7656 840.972 39.2656C840.958 37.0781 841.54 35.2102 842.719 33.6619C843.898 32.0994 845.574 30.9063 847.747 30.0824C849.921 29.2585 852.485 28.8466 855.439 28.8466C859.871 28.8466 863.365 29.777 865.922 31.6378C868.479 33.4844 869.892 36.027 870.162 39.2656ZM894.851 62.6179C893.317 62.6179 892.003 62.0781 890.91 60.9986C889.83 59.919 889.297 58.6122 889.312 57.0781C889.297 55.5724 889.83 54.2869 890.91 53.2216C892.003 52.142 893.317 51.6023 894.851 51.6023C896.3 51.6023 897.579 52.142 898.687 53.2216C899.809 54.2869 900.377 55.5724 900.391 57.0781C900.377 58.1009 900.107 59.0312 899.581 59.8693C899.07 60.7074 898.395 61.375 897.557 61.8722C896.733 62.3693 895.831 62.6179 894.851 62.6179ZM894.851 40.1605C893.317 40.1605 892.003 39.6278 890.91 38.5625C889.83 37.483 889.297 36.169 889.312 34.6207C889.297 33.1151 889.83 31.8295 890.91 30.7642C892.003 29.6847 893.317 29.1449 894.851 29.1449C896.3 29.1449 897.579 29.6847 898.687 30.7642C899.809 31.8295 900.377 33.1151 900.391 34.6207C900.377 35.6435 900.107 36.5739 899.581 37.4119C899.07 38.25 898.395 38.9176 897.557 39.4148C896.733 39.9119 895.831 40.1605 894.851 40.1605ZM924.084 44.8267C924.084 50.0824 923.374 54.9261 921.954 59.358C920.533 63.7756 918.317 67.8807 915.306 71.6733H905.206C906.357 70.267 907.415 68.5554 908.381 66.5384C909.361 64.5213 910.206 62.3125 910.917 59.9119C911.641 57.5114 912.202 55.0256 912.6 52.4545C913.012 49.8835 913.218 47.3409 913.218 44.8267C913.218 41.4602 912.87 38.0724 912.174 34.6634C911.478 31.2401 910.526 28.0724 909.319 25.1605C908.111 22.2344 906.741 19.8338 905.206 17.9588H915.306C918.317 21.7514 920.533 25.8636 921.954 30.2955C923.374 34.7131 924.084 39.5568 924.084 44.8267Z" fill="url(#paint0_linear_1_618)"/>
<defs>
<linearGradient id="paint0_linear_1_618" x1="38.0676" y1="63.9999" x2="936.283" y2="49.5809" gradientUnits="userSpaceOnUse">
<stop stop-color="#144EE3"/>
<stop offset="0.1875" stop-color="#EB568E"/>
<stop offset="0.640625" stop-color="#A353AA"/>
<stop offset="1" stop-color="#144EE3"/>
</linearGradient>
</defs>
</svg>
